<svg xmlns="http://www.w3.org/2000/svg" xmlns:xlink="http://www.w3.org/1999/xlink" preserveAspectRatio="xMidYMid meet" version="1.0" viewBox="-4.5 0.0 1023.0 1002.4" zoomAndPan="magnify" style="fill: rgb(0, 0, 0);" original_string_length="1612"><g><g id="__id281_scmk2sgppy"><path d="M881.7,0c12.7,63.6-19.1,129.2-64.9,175c-45.8,45.9-104.4,76.3-160.3,109 c-56,32.7-111.9,70-147,124.5c-30.6,47.4-43.1,104.2-49.5,160.2C452,636.7,453.1,708,474.7,772c15.7-38.6,36.2-75.5,59.5-110 c45.8-67.9,102.2-127.8,158.3-187.4c65.6-69.6,131.1-139.1,196.7-208.7c-67.9,127.2-173.1,229.8-262,343.3 c-88.9,113.6-164.7,249.2-156.4,393.2c6.6-73.7,66.4-132.2,131.3-167.8c64.9-35.6,137.6-55.5,201.5-92.7 c120.9-70.4,202.2-204.6,208.5-344.4C1018.5,256.1,954,121.6,881.7,0z" style="fill: rgb(132, 202, 237);"/></g><g><linearGradient xmlns:xlink="http://www.w3.org/1999/xlink" gradientTransform="matrix(-1 0 0 1 -993.198 0)" gradientUnits="userSpaceOnUse" id="__id282_scmk2sgppy" x1="-1204.21" x2="-1204.21" xlink:actuate="onLoad" xlink:show="other" xlink:type="simple" y1="-677.568" y2="10755.19"><stop offset="0" style="stop-color: rgb(49, 104, 216);"/><stop offset="1" style="stop-color: rgb(49, 104, 216);"/></linearGradient><path d="M99.1,61c-9.6,48.2,14.5,97.9,49.2,132.6c34.7,34.7,79.1,57.8,121.5,82.6 c42.4,24.8,84.7,53,111.4,94.3c23.2,35.9,32.6,78.9,37.5,121.4c5.9,51.4,5.1,105.5-11.3,154c-11.9-29.2-27.4-57.2-45.1-83.3 c-34.7-51.4-77.4-96.8-119.9-141.9c-49.7-52.7-99.3-105.4-149-158.1c51.4,96.4,131.1,174,198.5,260.1 c67.4,86,124.8,188.7,118.5,297.8c-5-55.8-50.3-100.1-99.4-127.1c-49.1-27-104.2-42-152.7-70.2C66.7,569.6,5.1,468,0.3,362.1 C-4.5,255,44.4,153.2,99.1,61z" style="fill: url(&quot;#__id282_scmk2sgppy&quot;);"/></g></g></svg>