<svg
					viewBox="0 0 497 416"
					fill="none"
					xmlns="http://www.w3.org/2000/svg"
				>
					<path
						fillRule="evenodd"
						clipRule="evenodd"
						d="M497 268.633V357.245C476.01 375.582 409.335 426.872 333.072 413.932C240.643 398.249 248.458 314.99 274.5 253.777C285.468 227.996 326.64 201.591 367.644 175.295C423.996 139.155 480.03 103.22 456.908 69.3847C431.976 32.9025 332.476 120.028 246.526 195.288C194.76 240.615 147.91 281.638 125.226 288.762C64.8761 307.715 0.26813 134.492 0.268433 93.2679C0.268735 52.0434 28.355 24.4154 48.0971 40.6676C63.3418 53.2173 73.7408 81.7785 84.172 110.428C97.215 146.251 110.308 182.212 132.988 187.182C152.752 191.513 210.327 149.109 272.138 103.585C337.98 55.0934 408.627 3.06168 443.501 0.205817C445.187 0.0676945 446.844 0 448.47 0C470.381 0 486.757 12.2934 497 30.1905V131.042C493.639 136.929 489.585 142.326 484.82 147.028C445.26 186.06 427.745 195.621 379.974 221.697C373.013 225.497 365.409 229.648 357 234.292C290.891 270.803 333.16 350.953 388.5 350.953C417.345 350.953 450.928 315.9 476.472 289.238C484.159 281.215 491.117 273.953 497 268.633Z"
						fill="#FF839F"
					/>
				</svg>